<svg xmlns="http://www.w3.org/2000/svg" width="500" height="500" viewBox="0 0 500 500" version="1.1"><path d="M 219.500 80.891 C 156.089 92.491, 104.512 136.517, 83.559 196.931 C 77.380 214.747, 74.876 228.973, 74.307 249.500 C 73.755 269.393, 75.517 284.277, 80.540 302.141 C 90.079 336.070, 110.713 367.413, 139 390.945 C 156.868 405.809, 186.713 421, 198.046 421 C 202.063 421, 203.200 420.561, 204.949 418.337 C 206.926 415.825, 207.029 414.654, 206.772 397.587 C 206.539 382.113, 206.283 379.550, 205 379.846 C 200.258 380.941, 183.432 381.081, 177 380.079 C 160.814 377.557, 154.058 372.327, 146.442 356.423 C 140.999 345.057, 138.782 342.310, 124.830 329.640 C 120.725 325.913, 120.647 325.730, 122.540 324.307 C 125.023 322.440, 132.319 323.146, 138.249 325.827 C 145.443 329.080, 150.475 333.477, 155.196 340.637 C 164.364 354.541, 172.722 359.958, 185 359.954 C 197.823 359.949, 206.691 357.269, 207.601 353.123 C 209.135 346.139, 211.501 340.497, 214.597 336.441 C 216.469 333.989, 218 331.813, 218 331.607 C 218 331.400, 215.412 330.920, 212.250 330.541 C 190.055 327.881, 168.705 318.252, 157.590 305.889 C 145.415 292.347, 139 272.044, 139 247.049 C 139 227.926, 142.363 216.703, 151.895 204.016 C 154.153 201.012, 156 198.226, 156 197.826 C 156 197.425, 155.325 194.506, 154.500 191.339 C 153.675 188.171, 153 181.921, 153 177.450 C 153 168.175, 156.150 154.151, 158.651 152.288 C 162.561 149.376, 183.004 155.987, 198.048 165.029 L 206.287 169.980 211.893 168.576 C 234.412 162.935, 265.611 162.940, 288.152 168.588 L 293.804 170.004 300.997 165.569 C 315.342 156.725, 334.594 149.784, 340.012 151.504 C 345.132 153.129, 348.762 178.574, 345.622 190.831 C 344.730 194.313, 344 197.475, 344 197.858 C 344 198.241, 345.847 201.012, 348.105 204.016 C 357.672 216.749, 361 227.908, 361 247.253 C 361 283.072, 348.962 306.578, 324.045 319.410 C 313.195 324.997, 305.705 327.430, 292.797 329.559 C 287.134 330.493, 282.342 331.395, 282.150 331.563 C 281.957 331.730, 283.209 333.622, 284.932 335.765 C 286.655 337.909, 289.052 342.102, 290.259 345.082 C 292.317 350.164, 292.486 352.521, 292.977 383.048 C 293.589 421.155, 293.553 421, 301.904 421 C 313.289 421, 343.090 405.843, 361 390.945 C 379.457 375.591, 394.704 356.886, 405.856 335.917 C 415.233 318.285, 420.485 302.274, 424.084 280.349 C 427.004 262.560, 426.396 237.149, 422.626 219.431 C 407.845 149.953, 355.413 97.100, 286.177 81.885 C 272.147 78.801, 234.028 78.233, 219.500 80.891" stroke="none" fill="#9374aa" fill-rule="evenodd"/></svg>