<svg xmlns="http://www.w3.org/2000/svg" width="500" height="500" viewBox="0 0 500 500" version="1.1"><path d="M 81.118 143.518 C 76.700 148.550, 76.916 142.510, 77.221 252.500 L 77.500 353.500 80.704 360 C 86.009 370.761, 95.772 379.203, 108.288 383.851 C 116.196 386.788, 306.317 387.281, 316.068 384.390 C 338.515 377.735, 350.067 362.658, 353.204 335.921 L 354.333 326.291 366.917 325.643 C 477.249 319.960, 499.070 177.008, 394.806 142.937 L 385.820 140 235.013 140 L 84.207 140 81.118 143.518 M 355.240 233.250 L 355.500 277.500 368.137 277.397 C 393.020 277.194, 407.689 264.811, 411.795 240.542 C 417.022 209.642, 400.123 189, 369.600 189 L 354.979 189 355.240 233.250 M 168 200.001 C 139.595 205.260, 128.846 232.132, 143.224 261.935 C 147.574 270.952, 210.631 334, 215.299 334 C 218.991 334, 277.660 275.579, 285.253 264.343 C 315.474 219.620, 258.986 175.689, 219.958 213.563 C 215.516 217.873, 214.824 217.852, 209.900 213.250 C 199.213 203.263, 181.178 197.561, 168 200.001" stroke="none" fill="#9374aa" fill-rule="evenodd"/></svg>