<svg xmlns="http://www.w3.org/2000/svg" width="500" height="500" viewBox="0 0 500 500" version="1.1"><path d="M 418.741 88.371 C 414.252 90.042, 416.850 88.143, 392.913 107.260 C 372.268 123.748, 371.665 124.302, 368.500 129.699 C 367.124 132.045, 359.646 137.909, 344.550 148.480 L 322.600 163.851 320.050 162.088 C 318.495 161.014, 313.011 159.684, 306 158.682 C 299.675 157.779, 286.625 155.860, 277 154.420 C 267.375 152.979, 252.796 150.828, 244.603 149.640 C 234.148 148.124, 229.463 147.035, 228.892 145.990 C 228.445 145.170, 226.662 141.458, 224.930 137.740 L 221.781 130.980 215.212 127.046 L 208.643 123.112 211.785 121.309 C 215.095 119.409, 217.710 110.941, 215.785 108.358 C 215.317 107.729, 215.169 105.880, 215.456 104.248 C 216.087 100.669, 209.866 93.020, 203.790 89.903 C 194.791 85.287, 183.583 89.574, 179.575 99.165 C 178.750 101.141, 177.383 103.023, 176.537 103.347 C 175.375 103.793, 175 105.504, 175 110.354 L 175 116.770 177.699 118.539 L 180.398 120.307 172.452 122.904 L 164.506 125.500 161.676 132.926 C 156.215 147.259, 155.333 160.989, 159.467 167.315 L 160.895 169.500 151.291 176 C 136.938 185.714, 118.584 199.891, 117.877 201.810 C 116.658 205.119, 114.912 226.806, 114.278 246.500 L 113.635 266.500 99.726 279 C 68.530 307.036, 62.315 314.946, 61.350 327.840 C 60.808 335.068, 60.235 337.184, 57.881 340.636 C 44.169 360.746, 49.157 396.583, 67.363 408.750 L 72.226 412 226.417 412 L 380.608 412 385.492 408.903 C 414.143 390.733, 433.960 347.482, 434.015 303 L 434.031 290.500 440.532 286 C 448.271 280.642, 448.994 278.758, 446.004 271.728 C 433.577 242.502, 414.247 232, 372.885 232 L 366.258 232 365.565 226.775 C 364.716 220.382, 363.816 219.216, 359.150 218.469 C 350.946 217.156, 351.240 217.383, 350.468 211.755 C 350.072 208.865, 348.720 203.350, 347.464 199.500 C 346.208 195.650, 345.252 192.449, 345.340 192.387 C 353.257 186.814, 389.581 169.174, 394.048 168.734 C 400.361 168.111, 442.513 150.774, 449.722 145.835 C 479.746 125.266, 452.982 75.623, 418.741 88.371 M 419.707 95.533 C 417.621 96.299, 409.484 102.081, 401.625 108.383 C 375.557 129.285, 373 132.246, 373 141.525 L 373 146.115 387.477 136.307 L 401.954 126.500 401.977 123.832 C 401.990 122.364, 402.273 120.452, 402.607 119.582 C 403.749 116.607, 405 117.997, 405.009 122.250 C 405.044 138.041, 427.164 150.172, 441.966 142.517 C 470.944 127.532, 450.441 84.253, 419.707 95.533 M 428.500 97.439 C 427.950 97.651, 426.236 98.105, 424.691 98.446 C 420.086 99.465, 413.335 106.474, 411.427 112.218 C 404.627 132.694, 430.550 148.596, 446.605 133.797 C 453.574 127.372, 452.437 126.846, 439.750 130.628 C 419.113 136.779, 418.450 134.888, 438.031 125.724 L 453 118.719 452.985 116.110 C 452.953 110.633, 451.980 110.873, 435.385 120.460 L 419.288 129.758 417.644 126.974 L 415.999 124.189 422.749 117.772 C 438.817 102.497, 439.798 101.733, 442.476 102.405 C 446.210 103.342, 445.537 101.627, 441.396 99.652 C 437.841 97.957, 430.447 96.688, 428.500 97.439 M 189.193 104.250 L 189.500 108.500 194.589 108.797 C 198.240 109.010, 200.040 108.656, 200.961 107.547 C 202.775 105.361, 206.724 105.615, 208 108 C 210.070 111.867, 212.938 109.514, 212.986 103.908 C 213.006 101.575, 206.594 100, 197.076 100 L 188.885 100 189.193 104.250 M 202.362 111.500 C 202.045 112.325, 200.822 113.007, 199.643 113.015 C 194.109 113.055, 193.465 119.084, 198.778 121.107 C 204.580 123.316, 212.681 116.639, 207.629 113.812 C 206.733 113.311, 206 112.248, 206 111.450 C 206 109.538, 203.099 109.578, 202.362 111.500 M 178.798 128.712 L 176.096 129.124 177.069 131.681 C 178.585 135.669, 180.077 147.844, 179.387 150.595 L 178.764 153.076 176.423 151.541 L 174.081 150.007 176.791 154.469 C 178.281 156.923, 179.725 158.813, 180 158.669 C 195.516 150.515, 205.110 146.678, 211.079 146.239 L 217.659 145.756 216.806 140.320 C 216.338 137.330, 216.208 134.473, 216.518 133.971 C 218.149 131.331, 211.954 131.942, 209.624 134.651 L 207.173 137.500 201.337 137.490 C 194.773 137.478, 189.481 135.327, 185.006 130.853 C 183.438 129.284, 182.007 128.067, 181.827 128.150 C 181.647 128.232, 180.284 128.485, 178.798 128.712 M 353.794 150.276 C 345.706 155.899, 329.398 167.168, 317.553 175.319 C 295.103 190.767, 293 192.642, 293 197.223 C 293 201.641, 287.354 204.672, 351.166 166 L 371.792 153.500 370.765 151.571 C 370.200 150.510, 369.459 147.484, 369.119 144.847 L 368.500 140.053 353.794 150.276 M 214.643 154.769 C 214.381 155.192, 215.969 160.927, 218.171 167.514 C 220.608 174.801, 222.807 183.993, 223.788 190.994 C 224.675 197.322, 225.453 202.606, 225.518 202.735 C 225.583 202.864, 229.206 203.427, 233.568 203.985 C 237.931 204.544, 243.082 205.214, 245.015 205.475 L 248.529 205.948 247.861 196.224 C 247.493 190.876, 246.474 183.435, 245.596 179.688 C 244.718 175.941, 244 172.730, 244 172.552 C 244 172.374, 245.478 171.527, 247.284 170.670 L 250.568 169.111 269.034 171.650 C 279.190 173.047, 291.325 174.733, 296 175.398 L 304.500 176.606 310.229 172.673 C 316.979 168.039, 316.887 167.455, 309.263 166.548 C 306.093 166.171, 284.829 163.193, 262.010 159.931 C 219.672 153.879, 215.476 153.422, 214.643 154.769 M 227.040 160.452 C 225.123 162.762, 226.186 165.500, 229 165.500 C 230.585 165.500, 231.597 164.855, 231.819 163.702 C 232.165 161.904, 230.424 159, 229 159 C 228.585 159, 227.703 159.653, 227.040 160.452 M 231.527 177.616 C 229.700 179.443, 229.900 180.904, 232.174 182.338 C 235.670 184.543, 238.762 180.162, 235.800 177.200 C 234.211 175.611, 233.458 175.685, 231.527 177.616 M 258.219 177.750 C 262.981 187, 263.976 197.460, 260.687 203.700 C 258.859 207.168, 258.574 208.376, 259.750 207.664 C 260.163 207.414, 262.975 207.571, 266 208.011 C 269.025 208.452, 273.790 209.085, 276.588 209.419 L 281.676 210.026 282.891 205.763 C 286.784 192.115, 289.068 187.430, 293.019 184.988 C 297.997 181.912, 298.973 182.306, 279.373 179.476 C 261.320 176.870, 257.610 176.567, 258.219 177.750 M 233.709 195.624 C 231.424 197.910, 234.414 202.546, 237.427 201.390 C 239.877 200.450, 239.115 195.588, 236.459 195.208 C 235.336 195.047, 234.099 195.235, 233.709 195.624 M 333.913 197.755 L 331.325 199.328 331.769 203.948 C 332.013 206.490, 331.755 210.228, 331.195 212.256 L 330.177 215.943 333.339 216.417 C 335.077 216.678, 338.188 217.113, 340.252 217.383 L 344.004 217.875 343.426 213.687 C 342.446 206.589, 339.011 195.995, 337.721 196.091 C 337.050 196.142, 335.336 196.890, 333.913 197.755 M 315.677 207.449 C 305.019 213.276, 304.998 213.198, 317.577 214.545 L 323.706 215.201 324.342 211.351 C 325.934 201.712, 326.064 201.770, 315.677 207.449 M 223 212.420 L 223 214.841 229.750 215.462 C 257.871 218.050, 268.527 221.136, 277.786 229.375 L 281.500 232.680 298.500 234.460 C 307.850 235.439, 321.125 236.806, 328 237.498 L 340.500 238.757 343.828 234.878 L 347.156 231 352.578 231 L 358 231 358 228.500 C 358 226.903, 357.437 226, 356.442 226 C 355.585 226, 346.023 224.901, 335.192 223.558 C 324.362 222.215, 306.050 219.973, 294.500 218.576 C 282.950 217.180, 262.418 214.679, 248.873 213.018 C 235.329 211.358, 223.966 210, 223.623 210 C 223.281 210, 223 211.089, 223 212.420 M 192.500 225.808 C 176.188 232.142, 132.656 255.989, 134.337 257.671 C 134.494 257.828, 139.899 255.097, 146.348 251.603 C 160.850 243.745, 185.060 232.946, 194.800 229.990 L 202.101 227.775 206.710 230.637 C 211.878 233.846, 216.940 240.572, 219.573 247.726 C 220.540 250.352, 221.594 252.794, 221.915 253.153 C 222.416 253.712, 257.741 257.063, 280.796 258.739 L 288.091 259.269 286.390 254.884 C 277.142 231.049, 262.672 224.150, 218.500 222.517 L 202.500 221.926 192.500 225.808 M 366.500 240.999 C 375.294 245.818, 386 259.943, 386 266.725 L 386 268.664 404.250 270.426 C 414.288 271.395, 426.100 272.558, 430.500 273.011 C 440.400 274.029, 440.115 274.494, 434.941 265.785 C 423.270 246.139, 412.005 241.180, 375.019 239.407 L 362.500 238.807 366.500 240.999 M 291.426 248.142 C 293.294 252.189, 295.111 257.075, 295.464 259 L 296.107 262.500 290.053 268.469 C 283.824 274.611, 282.063 279, 285.828 279 C 288.997 279, 363.336 285.922, 366.898 286.548 L 370.296 287.146 369.755 279.258 C 368.744 264.512, 362.755 256.050, 348.686 249.490 L 341.500 246.140 318 244.019 C 305.075 242.852, 293.044 241.647, 291.265 241.340 L 288.030 240.783 291.426 248.142 M 199.973 262.668 C 198.613 263.586, 197.307 264.491, 197.072 264.680 C 196.837 264.868, 197.584 266.705, 198.732 268.761 C 214.711 297.371, 195.190 344.783, 170.201 338.054 C 163.794 336.329, 164.331 335.133, 171.250 335.719 L 177.500 336.248 173.243 332.540 C 170.902 330.501, 167.821 326.845, 166.398 324.416 L 163.810 320 158.373 320 L 152.936 320 152.098 317.750 L 151.261 315.500 156.733 315.197 L 162.206 314.894 161.616 312.697 C 161.292 311.489, 161.021 309.938, 161.014 309.250 C 161.004 308.404, 159.235 308, 155.545 308 L 150.091 308 149.435 304.508 C 149.075 302.587, 149.041 300.335, 149.360 299.504 L 149.940 297.993 147.470 299.612 C 141.349 303.622, 147.381 327.949, 157.115 338.509 C 186.454 370.338, 226.635 312.047, 206.415 266.991 C 203.424 260.325, 203.435 260.332, 199.973 262.668 M 293.075 270.409 C 291.190 272.681, 292.688 276, 295.599 276 C 298.416 276, 299.802 273.496, 298.302 271.114 C 296.919 268.917, 294.576 268.601, 293.075 270.409 M 223.966 280.612 C 223.779 330.049, 205.677 376.887, 177.788 400.097 L 171.896 405 199.757 405 L 227.618 405 233.323 401.565 C 239.235 398.004, 244.847 393.870, 244.947 393 C 244.979 392.725, 241.966 392.624, 238.252 392.777 C 229.137 393.150, 227.950 392.243, 231.485 387.608 L 234.237 384 243.571 384 L 252.904 384 255.819 379.750 C 257.422 377.412, 260.150 372.688, 261.881 369.250 L 265.029 363 257.764 362.985 C 253.769 362.976, 249.841 362.553, 249.037 362.044 L 247.573 361.118 249.248 357.605 L 250.924 354.092 259.351 354.687 L 267.779 355.281 268.972 353.052 C 269.629 351.826, 271.212 346.700, 272.490 341.661 L 274.815 332.500 272.157 331.868 C 270.696 331.521, 267.123 331.183, 264.219 331.118 C 258.384 330.988, 257.564 330.133, 258.828 325.500 L 259.647 322.500 268.197 322.846 L 276.746 323.192 277.397 316.346 C 277.755 312.581, 278.295 307.427, 278.598 304.893 L 279.148 300.286 275.324 299.654 C 273.221 299.306, 269.337 299.017, 266.693 299.011 L 261.885 299 262.193 294.750 L 262.500 290.500 270.750 290.860 L 279 291.220 279 283.301 L 279 275.381 258.750 274.146 C 247.613 273.467, 235.238 272.644, 231.250 272.318 L 224 271.724 223.966 280.612 M 315.105 273.373 C 312.944 275.977, 316.114 279.661, 319.423 278.391 C 322.908 277.054, 321.783 272, 318 272 C 317.035 272, 315.732 272.618, 315.105 273.373 M 337.309 275.636 C 335.836 279.475, 341.149 282.296, 343.333 278.834 C 344.096 277.625, 344.023 276.733, 343.070 275.584 C 341.359 273.523, 338.109 273.552, 337.309 275.636 M 358.011 277.487 C 355.421 280.608, 359.813 284.615, 362.680 281.748 C 364.617 279.811, 363.540 276, 361.055 276 C 360.059 276, 358.689 276.669, 358.011 277.487 M 380.699 299.250 C 378.890 338.566, 364.718 374.864, 342.434 397.250 L 334.719 405 356.750 405 L 378.780 405 385.140 400.250 L 391.500 395.500 384.500 395.199 C 375.778 394.824, 375.046 394.112, 378.638 389.494 L 381.500 385.813 390.546 386.412 L 399.592 387.012 404.763 379.173 C 407.608 374.861, 410.223 370.583, 410.574 369.667 L 411.214 368 403.166 368 C 394.173 368, 393.230 367.390, 395.485 363.029 L 397.051 360 406.061 360 L 415.071 360 416.992 355.519 C 418.048 353.054, 419.407 349.201, 420.012 346.956 C 420.616 344.712, 421.338 342.284, 421.615 341.561 C 421.995 340.569, 420.016 340.071, 413.560 339.533 C 404.435 338.773, 404.201 338.586, 405.647 333.185 L 406.267 330.871 414.995 331.554 L 423.724 332.236 424.313 329.868 C 424.637 328.566, 425.177 324.350, 425.513 320.500 C 425.849 316.650, 426.314 312.546, 426.548 311.381 L 426.973 309.261 419.433 308.777 C 410.735 308.219, 409.525 307.438, 410.499 303.004 L 411.201 299.810 419.245 300.522 L 427.289 301.234 426.579 295.885 C 426.189 292.943, 425.649 290.316, 425.380 290.046 C 424.911 289.578, 389.303 286.144, 383.904 286.047 L 381.308 286 380.699 299.250 M 115.875 321.550 L 98.250 334.015 102.375 338.215 C 104.644 340.526, 106.725 342.355, 107 342.282 C 107.275 342.208, 114.038 337.727, 122.029 332.324 L 136.557 322.500 135.897 319.500 C 135.534 317.850, 135.183 314.813, 135.118 312.750 C 134.962 307.797, 135.977 307.333, 115.875 321.550 M 87.689 341.485 L 85.962 342.748 88.852 345.841 C 103.315 361.324, 95.287 395.536, 77.018 396.265 C 74.772 396.354, 72.472 395.836, 71.762 395.080 C 70.716 393.966, 71.037 393.836, 73.632 394.319 C 77.912 395.117, 78.403 394.210, 75.165 391.486 C 73.667 390.225, 71.816 388.025, 71.052 386.597 C 69.927 384.495, 68.932 384, 65.831 384 C 63.092 384, 62 383.572, 62 382.500 C 62 381.460, 63.045 381, 65.406 381 C 70.176 381, 69.345 377.475, 64.355 376.539 C 59.997 375.721, 59.561 374.519, 60.715 366.494 C 61.648 360.006, 61.259 358.778, 59.097 361.383 C 57.576 363.216, 57.530 377.541, 59.027 383.100 C 66.857 412.179, 95.611 405.510, 100.051 373.586 C 102.308 357.362, 94.325 336.633, 87.689 341.485 M 124.392 344.557 C 121.011 346.597, 120.367 347.467, 120.751 349.477 L 121.218 351.919 127.093 348.953 L 132.969 345.987 131.262 343.993 C 129.172 341.552, 129.404 341.533, 124.392 344.557 M 149.940 361.868 C 132.803 379.648, 144.186 414.514, 162.741 401.073 C 178.424 389.712, 176.114 357, 159.628 357 L 154.632 357 149.940 361.868 M 155.445 362.959 C 148.181 365.901, 140.770 385, 146.893 385 C 147.934 385, 149.045 385.675, 149.362 386.500 C 149.780 387.590, 149.246 388, 147.410 388 C 145.979 388, 145.150 388.434, 145.500 389 C 145.840 389.550, 147.104 390.003, 148.309 390.006 C 149.692 390.010, 151.128 391.116, 152.203 393.006 C 153.140 394.653, 153.478 396, 152.953 396 C 152.429 396, 152 396.509, 152 397.131 C 152 398.965, 159.003 397.346, 161.593 394.913 C 171.605 385.507, 168.603 359.632, 157.782 362.063 C 157.627 362.098, 156.575 362.501, 155.445 362.959 M 115.387 367.906 C 108.251 372.257, 104.716 388.048, 108.807 397.297 C 114.753 410.739, 129.231 404.515, 132.030 387.314 C 134.533 371.936, 125.689 361.624, 115.387 367.906 M 117.269 371.096 C 114.268 372.206, 110.316 378.642, 109.503 383.742 L 108.827 387.984 111.663 389.170 L 114.500 390.357 112.250 390.748 C 109.564 391.215, 109.223 393, 111.820 393 C 112.820 393, 114.593 394.097, 115.759 395.438 L 117.879 397.877 116.190 398.284 L 114.500 398.690 116.235 399.446 C 117.310 399.915, 119.173 399.499, 121.137 398.351 C 132.988 391.427, 129.462 366.586, 117.269 371.096" stroke="none" fill="#9374aa" fill-rule="evenodd"/></svg>